<?xml version="1.0" encoding="UTF-8"?> <!-- Generator: Adobe Illustrator 24.3.0, SVG Export Plug-In . SVG Version: 6.00 Build 0) --> <svg xmlns="http://www.w3.org/2000/svg" xmlns:xlink="http://www.w3.org/1999/xlink" version="1.1" id="Layer_1" x="0px" y="0px" viewBox="0 0 778.9 64.5" style="enable-background:new 0 0 778.9 64.5;" xml:space="preserve"> <style type="text/css"> .st0{fill:#ED2376;} .st1{fill:#FFFFFF;} .st2{fill:url(#SVGID_1_);} .st3{fill:url(#SVGID_2_);} </style> <g id="Layer_2_1_"> <g id="Layer_1-2"> <path class="st0" d="M559.4,56.1l-13.5-49h11.8l8.5,34.3l9.5-34.3h9.1l9.5,34.3l8.5-34.3h11.8l-13.5,49h-12.7l-8-28.9l-8,28.9 H559.4z"></path> <path class="st0" d="M631.5,57.1c-10.1,0.1-18.4-8-18.5-18.1c0-0.1,0-0.3,0-0.4c0-10.2,8.3-18.6,18.5-18.6 c10.2,0,18.6,8.3,18.6,18.5c0,0,0,0,0,0c0.1,10.1-8,18.4-18.1,18.5C631.9,57.1,631.7,57.1,631.5,57.1L631.5,57.1z M631.5,46.9 c2.2,0.1,4.2-0.8,5.7-2.3c1.6-1.6,2.4-3.8,2.3-6c0.1-2.2-0.7-4.4-2.3-6c-3.2-3.1-8.3-3.1-11.5,0c-1.6,1.6-2.4,3.7-2.3,6 c-0.1,2.2,0.7,4.4,2.3,6C627.3,46.1,629.4,46.9,631.5,46.9z"></path> <path class="st0" d="M666.5,27.4c1.3-4.5,5.7-6.9,10.5-6.9v11.9c-2.5-0.4-5,0-7.2,1.3c-2.2,1.3-3.3,3.5-3.3,6.7v15.8H656v-35h10.5 L666.5,27.4z"></path> <path class="st0" d="M715.5,56.1h-11.9l-11.2-15.5v15.5h-10.5v-49h10.5v29.3l10.5-15.3h12.2l-12.7,17.5L715.5,56.1z"></path> <path class="st0" d="M726.7,42.8c1.2,3.3,4,4.9,8.4,4.9c2.5,0.1,5-0.8,6.7-2.7l8.4,4.8c-3.4,4.8-8.5,7.2-15.3,7.2 c-5.9,0-10.6-1.8-14.1-5.2c-3.5-3.5-5.4-8.3-5.2-13.2c-0.3-9.9,7.6-18.2,17.5-18.5c0.4,0,0.7,0,1.1,0c4.8-0.1,9.4,1.8,12.7,5.3 c3.4,3.5,5.3,8.3,5.1,13.2c0,1.4-0.1,2.8-0.4,4.2L726.7,42.8z M741.5,35c-1-3.7-3.5-5.5-7.4-5.5s-6.6,1.8-7.6,5.5H741.5z"></path> <path class="st0" d="M768.4,27.4c1.3-4.5,5.7-6.9,10.5-6.9v11.9c-2.5-0.4-5,0-7.2,1.3c-2.2,1.3-3.3,3.5-3.3,6.7v15.8h-10.5v-35 h10.5V27.4z"></path> <path class="st1" d="M232.6,29.2c0.1,0,0.1,0.1,0.1,0.1v4c0,7.3-2.3,13.1-6.8,17.5s-10.2,6.5-17.2,6.5c-7.6,0-13.9-2.4-18.9-7.3 c-4.9-4.7-7.6-11.2-7.5-18c-0.1-14,11.1-25.4,25.1-25.5c0.2,0,0.3,0,0.5,0c9.1,0,17.1,4.4,21.3,11c0,0.1,0,0.2,0,0.2c0,0,0,0,0,0 l-9.2,5.3c-0.1,0-0.1,0-0.2,0c-2.2-3.3-6.6-5.6-11.9-5.6c-3.9-0.1-7.6,1.4-10.3,4.1c-2.7,2.8-4.2,6.6-4.1,10.5 c-0.1,3.9,1.4,7.7,4.2,10.4c2.8,2.7,6.5,4,11.2,4c6.4,0,10.5-2.5,12.4-7.3c0-0.1,0-0.2-0.1-0.2c0,0-0.1,0-0.1,0h-12.6 c-0.1,0-0.1-0.1-0.1-0.1v-9.5c0-0.1,0.1-0.1,0.1-0.1L232.6,29.2z"></path> <path class="st1" d="M246.8,43.2c-0.1,0-0.1,0.1-0.1,0.2c0,0,0,0,0,0c1.2,3.1,4,4.7,8.3,4.7c2.5,0.1,4.9-0.8,6.6-2.6 c0,0,0.1,0,0.2,0l8.1,4.7c0.1,0,0.1,0.1,0.1,0.2c0,0,0,0,0,0c-3.4,4.7-8.5,7.1-15.1,7.1c-5.9,0-10.5-1.7-14.1-5.2 c-3.5-3.5-5.4-8.3-5.2-13.2c-0.3-9.9,7.5-18.1,17.4-18.4c0.4,0,0.8,0,1.2,0c4.8-0.1,9.4,1.8,12.6,5.3c3.4,3.5,5.3,8.2,5.1,13.1 c0,1.4-0.1,2.7-0.4,4.1c0,0.1-0.1,0.1-0.1,0.1L246.8,43.2z M261.2,35.4c0.1,0,0.1-0.1,0.1-0.2c0,0,0,0,0,0 c-1.1-3.6-3.5-5.3-7.3-5.3s-6.5,1.8-7.6,5.3c0,0.1,0,0.2,0.1,0.2c0,0,0,0,0,0H261.2z"></path> <path class="st1" d="M306,24.4c2.5,2.6,3.8,6.1,3.8,10.6v21.3c0,0.1-0.1,0.1-0.1,0.1l0,0h-10.2c-0.1,0-0.1-0.1-0.1-0.1 c0,0,0,0,0,0V36.5c0-4.1-2.5-6.4-6.1-6.4c-4,0-6.5,2.4-6.5,7.2v18.9c0,0.1-0.1,0.1-0.1,0.1l0,0h-10.2c-0.1,0-0.1-0.1-0.1-0.1 c0,0,0,0,0,0V21.7c0-0.1,0.1-0.1,0.1-0.1l0,0h10.2c0.1,0,0.1,0.1,0.1,0.1c0,0,0,0,0,0v2.7c0,0.1,0,0.1,0.1,0.1c0,0,0.1,0,0.1-0.1 c2.1-2.6,5.4-3.9,9.7-3.9C300.2,20.5,303.6,21.9,306,24.4z"></path> <path class="st1" d="M335.8,31.6h-6.9c-0.1,0-0.1,0.1-0.1,0.1c0,0,0,0,0,0v12.2c0,2.8,2,3.3,7,3c0.1,0,0.1,0,0.1,0.1c0,0,0,0,0,0 v9.2c0,0.1-0.1,0.1-0.1,0.1c-6.6,0.7-11.1,0-13.7-1.9c-2.6-2-3.8-5.5-3.8-10.6V31.7c0-0.1-0.1-0.1-0.1-0.1l0,0h-5.3 c-0.1,0-0.1-0.1-0.1-0.1c0,0,0,0,0,0v-9.8c0-0.1,0.1-0.1,0.1-0.1l0,0h5.3c0.1,0,0.1-0.1,0.1-0.1c0,0,0,0,0,0V15 c0-0.1,0-0.1,0.1-0.1l10.2-3.1c0.1,0,0.2,0,0.2,0.1c0,0,0,0,0,0v9.4c0,0.1,0.1,0.1,0.1,0.1l0,0h6.9c0.1,0,0.1,0.1,0.1,0.1 c0,0,0,0,0,0v9.8C336,31.5,335.9,31.6,335.8,31.6C335.8,31.6,335.8,31.6,335.8,31.6z"></path> <path class="st1" d="M340.5,56.3V5.6c0-0.1,0.1-0.1,0.1-0.1l0,0h10.2c0.1,0,0.1,0,0.1,0.1c0,0,0,0,0,0v50.6c0,0.1-0.1,0.1-0.1,0.1 l0,0h-10.2C340.6,56.4,340.5,56.4,340.5,56.3C340.5,56.3,340.5,56.3,340.5,56.3z"></path> <path class="st1" d="M366.8,43.2c-0.1,0-0.2,0.1-0.1,0.2c0,0,0,0,0,0c1.2,3.1,4,4.7,8.3,4.7c2.5,0.1,4.9-0.8,6.6-2.6 c0.1,0,0.1,0,0.2,0l8.1,4.7c0.1,0.1,0.1,0.1,0,0.2c0,0,0,0,0,0c-3.4,4.7-8.5,7.1-15.1,7.1c-5.9,0-10.5-1.7-14.1-5.2 c-3.5-3.5-5.4-8.3-5.2-13.2c-0.3-9.9,7.5-18.1,17.3-18.4c0.4,0,0.8,0,1.2,0c4.8-0.1,9.4,1.8,12.6,5.3c3.4,3.5,5.2,8.2,5.1,13.1 c0,1.4-0.1,2.7-0.4,4.1c0,0.1-0.1,0.1-0.1,0.1L366.8,43.2z M381.2,35.4c0.1,0,0.1-0.1,0.1-0.2c0,0,0,0,0,0 c-1.1-3.6-3.5-5.3-7.3-5.3s-6.5,1.8-7.5,5.3c0,0.1,0,0.2,0.1,0.2c0,0,0,0,0,0H381.2z"></path> <path class="st1" d="M445,24.5c2.4,2.6,3.6,6.1,3.6,10.5v21.3c0,0.1-0.1,0.1-0.1,0.1l0,0h-10.2c-0.1,0-0.1-0.1-0.1-0.1 c0,0,0,0,0,0V35.9c0-3.6-1.8-5.7-5-5.7c-3.4,0-5.5,2.4-5.5,6.6v19.5c0,0.1,0,0.1-0.1,0.1c0,0,0,0,0,0h-10.2 c-0.1,0-0.1-0.1-0.1-0.1c0,0,0,0,0,0V35.9c0-3.6-1.7-5.7-5-5.7s-5.4,2.4-5.4,6.6v19.5c0,0.1-0.1,0.1-0.1,0.1l0,0h-10.2 c-0.1,0-0.1-0.1-0.1-0.1c0,0,0,0,0,0V21.7c0-0.1,0.1-0.1,0.1-0.1l0,0h10.2c0.1,0,0.1,0.1,0.1,0.1c0,0,0,0,0,0v2.6 c0,0.1,0,0.1,0.1,0.1c0,0,0.1,0,0.1-0.1c1.9-2.6,5-3.9,9.1-3.9c4,0,7,1.5,9,4.5c0,0.1,0.1,0.1,0.2,0c0,0,0,0,0,0 c2.2-3,5.5-4.5,10-4.5C439,20.4,442.5,21.9,445,24.5z"></path> <path class="st1" d="M479.9,21.5H490c0.1,0,0.1,0.1,0.1,0.1c0,0,0,0,0,0v34.6c0,0.1,0,0.1-0.1,0.1c0,0,0,0,0,0h-10.1 c-0.1,0-0.1-0.1-0.1-0.1c0,0,0,0,0,0v-2.8c0-0.1-0.1-0.1-0.1-0.1c0,0-0.1,0-0.1,0c-2.4,2.7-5.8,4-10.2,4c-4.5,0-8.8-1.9-11.8-5.3 c-3.3-3.6-5-8.3-4.9-13.1c-0.1-4.8,1.6-9.5,4.9-13c3-3.4,7.3-5.4,11.8-5.4c4.3,0,7.7,1.3,10.2,4c0,0.1,0.1,0.1,0.2,0 c0,0,0-0.1,0-0.1v-2.9C479.7,21.6,479.8,21.6,479.9,21.5z M471.4,47.5c2.2,0.1,4.4-0.7,6-2.3c1.6-1.7,2.4-3.9,2.3-6.2 c0.1-2.3-0.7-4.5-2.3-6.2c-3.4-3.1-8.6-3.1-12,0c-1.6,1.7-2.4,3.9-2.3,6.2c-0.1,2.3,0.7,4.5,2.3,6.2 C467,46.8,469.2,47.6,471.4,47.5L471.4,47.5z"></path> <path class="st1" d="M526.2,24.4c2.5,2.6,3.8,6.1,3.8,10.6v21.3c0,0.1-0.1,0.1-0.1,0.1l0,0h-10.2c-0.1,0-0.1-0.1-0.1-0.1 c0,0,0,0,0,0V36.5c0-4.1-2.5-6.4-6.1-6.4c-4,0-6.5,2.4-6.5,7.2v18.9c0,0.1-0.1,0.1-0.1,0.1l0,0h-10.2c-0.1,0-0.1-0.1-0.1-0.1 c0,0,0,0,0,0V21.7c0-0.1,0.1-0.1,0.1-0.1l0,0h10.2c0.1,0,0.1,0.1,0.1,0.1c0,0,0,0,0,0v2.7c0,0.1,0,0.1,0.1,0.1c0,0,0.1,0,0.1-0.1 c2.1-2.6,5.4-3.9,9.7-3.9C520.4,20.5,523.8,21.9,526.2,24.4z"></path> <linearGradient id="SVGID_1_" gradientUnits="userSpaceOnUse" x1="0" y1="34.22" x2="38" y2="34.22" gradientTransform="matrix(1 0 0 -1 0 66)"> <stop offset="0" style="stop-color:#A40A51"></stop> <stop offset="1" style="stop-color:#ED2376"></stop> </linearGradient> <path class="st2" d="M0,39.2V24.4l38-13.3v8.8L13.5,31.8l24.5,12v8.7L0,39.2z"></path> <linearGradient id="SVGID_2_" gradientUnits="userSpaceOnUse" x1="111.55" y1="34.22" x2="149.55" y2="34.22" gradientTransform="matrix(1 0 0 -1 0 66)"> <stop offset="0" style="stop-color:#ED2376"></stop> <stop offset="1" style="stop-color:#A40A51"></stop> </linearGradient> <path class="st3" d="M111.6,52.5v-8.7l24.5-12l-24.5-11.9v-8.8l38,13.3v14.9L111.6,52.5z"></path> <path class="st1" d="M105.9,44c0,0.6-1.1,0.8-3.4,0.8c-2.7-0.1-4.1,0.5-4.3,1.8c-0.1,0.7-0.2,3-0.2,7v3.7 c-7.1,4.8-13.9,7.3-20.4,7.3c-8.1,0.2-15.9-3.1-21.4-9c-5.7-6-8.6-13.5-8.6-22.4c0-9.5,2.9-17.4,8.8-23.7 C62.1,3.2,70.2-0.2,78.6,0c3.9,0.1,7.8,1,11.3,2.7c0.9,0.5,1.9,0.8,3,1c1,0,1.8-0.7,2.4-2.2c0.3-0.7,0.6-1.1,1-1.1 c0.4,0,0.6,0.3,0.6,0.9c0,0.1-0.1,1.3-0.3,3.6c-0.1,0.7-0.1,2.4-0.1,5.1c0,2,0.1,5.2,0.4,9.4c0,1.1-0.3,1.7-0.9,1.7 c-0.8,0-1.4-1.2-1.7-3.6c-0.7-5.3-2.5-9.5-5.3-12.6c-2-2.2-4.9-3.3-8.6-3.3c-11.3,0-17,10.1-17,30.2c0,12.5,1.9,21.3,5.6,26.2 c2.2,3,5.7,4.8,9.4,4.7c4.9,0,7.4-3.1,7.4-9.4c0-4.7-0.2-7.3-0.6-7.9s-1.4-0.8-3-0.8h-2.3c-1.3,0-1.9-0.3-1.9-0.8s0.5-0.8,1.5-0.8 c2.1,0,4.7,0,7.9,0.1h17.2C105.5,43.2,105.9,43.5,105.9,44z"></path> </g> </g> </svg> 